<mxfile host="app.diagrams.net" modified="2023-05-16T07:30:04.552Z" agent="Mozilla/5.0 (Windows NT 10.0; Win64; x64) AppleWebKit/537.36 (KHTML, like Gecko) Chrome/112.0.0.0 Safari/537.36" etag="raqWKUXnRsRo5ihRYZ7a" version="21.3.2" type="github">
  <diagram name="Page-1" id="2YBvvXClWsGukQMizWep">
    <mxGraphModel dx="1195" dy="673" grid="1" gridSize="10" guides="1" tooltips="1" connect="1" arrows="1" fold="1" page="1" pageScale="1" pageWidth="850" pageHeight="1100" math="0" shadow="0">
      <root>
        <mxCell id="0" />
        <mxCell id="1" parent="0" />
        <mxCell id="iCU8PE95by6Qg0S7l5G6-96" value="826300" style="shape=umlLifeline;perimeter=lifelinePerimeter;whiteSpace=wrap;html=1;container=1;dropTarget=0;collapsible=0;recursiveResize=0;outlineConnect=0;portConstraint=eastwest;newEdgeStyle={&quot;edgeStyle&quot;:&quot;elbowEdgeStyle&quot;,&quot;elbow&quot;:&quot;vertical&quot;,&quot;curved&quot;:0,&quot;rounded&quot;:0};fontSize=20;rounded=1;" parent="1" vertex="1">
          <mxGeometry x="750" y="80" width="100" height="1181.1" as="geometry" />
        </mxCell>
        <mxCell id="iCU8PE95by6Qg0S7l5G6-97" value="" style="html=1;points=[];perimeter=orthogonalPerimeter;outlineConnect=0;targetShapes=umlLifeline;portConstraint=eastwest;newEdgeStyle={&quot;edgeStyle&quot;:&quot;elbowEdgeStyle&quot;,&quot;elbow&quot;:&quot;vertical&quot;,&quot;curved&quot;:0,&quot;rounded&quot;:0};rounded=1;" parent="iCU8PE95by6Qg0S7l5G6-96" vertex="1">
          <mxGeometry x="45" y="719" width="10" height="40" as="geometry" />
        </mxCell>
        <mxCell id="iCU8PE95by6Qg0S7l5G6-9" value="DBS new VA" style="shape=umlFrame;whiteSpace=wrap;html=1;pointerEvents=0;fillColor=#60a917;strokeColor=#2D7600;fontColor=#ffffff;rounded=1;" parent="1" vertex="1">
          <mxGeometry x="400" y="160" width="320" height="180" as="geometry" />
        </mxCell>
        <mxCell id="iCU8PE95by6Qg0S7l5G6-10" value="" style="html=1;points=[];perimeter=orthogonalPerimeter;outlineConnect=0;targetShapes=umlLifeline;portConstraint=eastwest;newEdgeStyle={&quot;edgeStyle&quot;:&quot;elbowEdgeStyle&quot;,&quot;elbow&quot;:&quot;vertical&quot;,&quot;curved&quot;:0,&quot;rounded&quot;:0};fillColor=#60a917;strokeColor=#2D7600;fontColor=#ffffff;rounded=1;" parent="1" vertex="1">
          <mxGeometry x="635" y="200" width="10" height="120" as="geometry" />
        </mxCell>
        <mxCell id="iCU8PE95by6Qg0S7l5G6-12" value="开户流程" style="html=1;verticalAlign=bottom;endArrow=open;dashed=1;endSize=8;edgeStyle=elbowEdgeStyle;elbow=vertical;curved=0;rounded=1;fillColor=#60a917;strokeColor=#2D7600;" parent="1" edge="1">
          <mxGeometry x="0.0025" relative="1" as="geometry">
            <mxPoint x="634.9999999999998" y="210.00476190476192" as="sourcePoint" />
            <mxPoint x="475.5" y="210.1" as="targetPoint" />
            <mxPoint as="offset" />
          </mxGeometry>
        </mxCell>
        <mxCell id="iCU8PE95by6Qg0S7l5G6-13" value="收款流程" style="html=1;verticalAlign=bottom;endArrow=open;dashed=1;endSize=8;edgeStyle=elbowEdgeStyle;elbow=vertical;curved=0;rounded=1;fillColor=#60a917;strokeColor=#2D7600;" parent="1" edge="1">
          <mxGeometry x="-0.0022" relative="1" as="geometry">
            <mxPoint x="635" y="280.1" as="sourcePoint" />
            <mxPoint x="476" y="280.1" as="targetPoint" />
            <mxPoint as="offset" />
          </mxGeometry>
        </mxCell>
        <mxCell id="iCU8PE95by6Qg0S7l5G6-14" value="付款流程" style="html=1;verticalAlign=bottom;endArrow=open;dashed=1;endSize=8;edgeStyle=elbowEdgeStyle;elbow=vertical;curved=0;rounded=1;fillColor=#60a917;strokeColor=#2D7600;" parent="1" edge="1">
          <mxGeometry x="-0.002" relative="1" as="geometry">
            <mxPoint x="635" y="310.20000000000005" as="sourcePoint" />
            <mxPoint x="476" y="310.20000000000005" as="targetPoint" />
            <mxPoint as="offset" />
          </mxGeometry>
        </mxCell>
        <mxCell id="iCU8PE95by6Qg0S7l5G6-16" value="换汇流程" style="html=1;verticalAlign=bottom;endArrow=open;dashed=1;endSize=8;edgeStyle=elbowEdgeStyle;elbow=vertical;curved=0;rounded=1;fillColor=#60a917;strokeColor=#2D7600;" parent="1" edge="1">
          <mxGeometry x="0.0013" relative="1" as="geometry">
            <mxPoint x="634.9999999999998" y="240.00476190476192" as="sourcePoint" />
            <mxPoint x="475.5" y="240.1" as="targetPoint" />
            <mxPoint as="offset" />
          </mxGeometry>
        </mxCell>
        <mxCell id="iCU8PE95by6Qg0S7l5G6-22" value="申请开户" style="html=1;verticalAlign=bottom;endArrow=block;edgeStyle=elbowEdgeStyle;elbow=vertical;curved=0;rounded=1;fillColor=#1ba1e2;strokeColor=#006EAF;" parent="1" edge="1">
          <mxGeometry x="0.0015" width="80" relative="1" as="geometry">
            <mxPoint x="160" y="419.81" as="sourcePoint" />
            <mxPoint x="319.5" y="419.55555555555554" as="targetPoint" />
            <mxPoint as="offset" />
          </mxGeometry>
        </mxCell>
        <mxCell id="iCU8PE95by6Qg0S7l5G6-23" value="操作开户" style="html=1;verticalAlign=bottom;endArrow=block;edgeStyle=elbowEdgeStyle;elbow=vertical;curved=0;rounded=1;fillColor=#1ba1e2;strokeColor=#006EAF;" parent="1" edge="1">
          <mxGeometry width="80" relative="1" as="geometry">
            <mxPoint x="320" y="430" as="sourcePoint" />
            <mxPoint x="480" y="430" as="targetPoint" />
          </mxGeometry>
        </mxCell>
        <mxCell id="iCU8PE95by6Qg0S7l5G6-26" value="开户申请" style="html=1;verticalAlign=bottom;endArrow=block;edgeStyle=elbowEdgeStyle;elbow=vertical;curved=0;rounded=1;fillColor=#1ba1e2;strokeColor=#006EAF;" parent="1" edge="1">
          <mxGeometry width="80" relative="1" as="geometry">
            <mxPoint x="480.25" y="440" as="sourcePoint" />
            <mxPoint x="639.7499999999998" y="440" as="targetPoint" />
          </mxGeometry>
        </mxCell>
        <mxCell id="iCU8PE95by6Qg0S7l5G6-27" value="开户结果返回" style="html=1;verticalAlign=bottom;endArrow=open;dashed=1;endSize=8;edgeStyle=elbowEdgeStyle;elbow=vertical;curved=0;rounded=1;fillColor=#1ba1e2;strokeColor=#006EAF;" parent="1" edge="1">
          <mxGeometry x="0.001" relative="1" as="geometry">
            <mxPoint x="639.5" y="470.2222222222222" as="sourcePoint" />
            <mxPoint x="480" y="470" as="targetPoint" />
            <mxPoint as="offset" />
          </mxGeometry>
        </mxCell>
        <mxCell id="iCU8PE95by6Qg0S7l5G6-28" value="开户结果返回" style="html=1;verticalAlign=bottom;endArrow=open;dashed=1;endSize=8;edgeStyle=elbowEdgeStyle;elbow=vertical;curved=0;rounded=1;fillColor=#1ba1e2;strokeColor=#006EAF;" parent="1" edge="1">
          <mxGeometry x="-0.0011" relative="1" as="geometry">
            <mxPoint x="474.5000000000002" y="470.06976744186045" as="sourcePoint" />
            <mxPoint x="320.0348837209302" y="470.186046511628" as="targetPoint" />
            <mxPoint as="offset" />
          </mxGeometry>
        </mxCell>
        <mxCell id="iCU8PE95by6Qg0S7l5G6-29" value="开户结果返回" style="html=1;verticalAlign=bottom;endArrow=open;dashed=1;endSize=8;edgeStyle=elbowEdgeStyle;elbow=vertical;curved=0;rounded=1;fillColor=#1ba1e2;strokeColor=#006EAF;" parent="1" edge="1">
          <mxGeometry x="-0.0011" relative="1" as="geometry">
            <mxPoint x="314.5000000000002" y="470.11976744186046" as="sourcePoint" />
            <mxPoint x="160" y="470.05" as="targetPoint" />
            <mxPoint as="offset" />
          </mxGeometry>
        </mxCell>
        <mxCell id="iCU8PE95by6Qg0S7l5G6-37" value="GO" style="text;strokeColor=none;fillColor=none;html=1;fontSize=24;fontStyle=1;verticalAlign=middle;align=center;rounded=1;" parent="1" vertex="1">
          <mxGeometry x="110" y="880" width="100" height="40" as="geometry" />
        </mxCell>
        <mxCell id="iCU8PE95by6Qg0S7l5G6-38" value="芷悦/健宇" style="text;strokeColor=none;fillColor=none;html=1;fontSize=24;fontStyle=1;verticalAlign=middle;align=center;rounded=1;" parent="1" vertex="1">
          <mxGeometry x="270" y="880" width="100" height="40" as="geometry" />
        </mxCell>
        <mxCell id="iCU8PE95by6Qg0S7l5G6-39" value="账户系统" style="text;strokeColor=none;fillColor=none;html=1;fontSize=24;fontStyle=1;verticalAlign=middle;align=center;rounded=1;" parent="1" vertex="1">
          <mxGeometry x="430" y="880" width="100" height="40" as="geometry" />
        </mxCell>
        <mxCell id="iCU8PE95by6Qg0S7l5G6-40" value="DBS HK" style="text;strokeColor=none;fillColor=none;html=1;fontSize=24;fontStyle=1;verticalAlign=middle;align=center;rounded=1;" parent="1" vertex="1">
          <mxGeometry x="590" y="880" width="100" height="40" as="geometry" />
        </mxCell>
        <mxCell id="iCU8PE95by6Qg0S7l5G6-41" value="826300" style="text;strokeColor=none;fillColor=none;html=1;fontSize=24;fontStyle=1;verticalAlign=middle;align=center;rounded=1;" parent="1" vertex="1">
          <mxGeometry x="750" y="880" width="100" height="40" as="geometry" />
        </mxCell>
        <mxCell id="iCU8PE95by6Qg0S7l5G6-48" value="打款100 W USD" style="html=1;verticalAlign=bottom;endArrow=block;edgeStyle=elbowEdgeStyle;elbow=vertical;curved=0;rounded=1;fillColor=#f0a30a;strokeColor=#BD7000;" parent="1" edge="1">
          <mxGeometry width="80" relative="1" as="geometry">
            <mxPoint x="160" y="570" as="sourcePoint" />
            <mxPoint x="639.5" y="570.2222222222222" as="targetPoint" />
          </mxGeometry>
        </mxCell>
        <mxCell id="iCU8PE95by6Qg0S7l5G6-50" value="收款" style="html=1;verticalAlign=bottom;endArrow=open;dashed=1;endSize=8;edgeStyle=elbowEdgeStyle;elbow=vertical;curved=0;rounded=1;fillColor=#f0a30a;strokeColor=#BD7000;" parent="1" edge="1">
          <mxGeometry relative="1" as="geometry">
            <mxPoint x="639.5" y="610.2222222222222" as="sourcePoint" />
            <mxPoint x="480" y="610" as="targetPoint" />
          </mxGeometry>
        </mxCell>
        <mxCell id="iCU8PE95by6Qg0S7l5G6-52" value="收款审核" style="html=1;verticalAlign=bottom;endArrow=open;dashed=1;endSize=8;edgeStyle=elbowEdgeStyle;elbow=vertical;curved=0;rounded=1;fillColor=#f0a30a;strokeColor=#BD7000;" parent="1" edge="1">
          <mxGeometry relative="1" as="geometry">
            <mxPoint x="480" y="630" as="sourcePoint" />
            <mxPoint x="320" y="630" as="targetPoint" />
          </mxGeometry>
        </mxCell>
        <mxCell id="iCU8PE95by6Qg0S7l5G6-53" value="收款通知" style="html=1;verticalAlign=bottom;endArrow=open;dashed=1;endSize=8;edgeStyle=elbowEdgeStyle;elbow=vertical;curved=0;rounded=1;fillColor=#f0a30a;strokeColor=#BD7000;" parent="1" edge="1">
          <mxGeometry relative="1" as="geometry">
            <mxPoint x="320" y="630" as="sourcePoint" />
            <mxPoint x="160" y="630" as="targetPoint" />
          </mxGeometry>
        </mxCell>
        <mxCell id="iCU8PE95by6Qg0S7l5G6-57" value="融资系统" style="shape=umlLifeline;perimeter=lifelinePerimeter;whiteSpace=wrap;html=1;container=1;dropTarget=0;collapsible=0;recursiveResize=0;outlineConnect=0;portConstraint=eastwest;newEdgeStyle={&quot;edgeStyle&quot;:&quot;elbowEdgeStyle&quot;,&quot;elbow&quot;:&quot;vertical&quot;,&quot;curved&quot;:0,&quot;rounded&quot;:0};fontSize=20;rounded=1;" parent="1" vertex="1">
          <mxGeometry x="910" y="80" width="100" height="1181.1" as="geometry" />
        </mxCell>
        <mxCell id="iCU8PE95by6Qg0S7l5G6-59" value="" style="html=1;points=[];perimeter=orthogonalPerimeter;outlineConnect=0;targetShapes=umlLifeline;portConstraint=eastwest;newEdgeStyle={&quot;edgeStyle&quot;:&quot;elbowEdgeStyle&quot;,&quot;elbow&quot;:&quot;vertical&quot;,&quot;curved&quot;:0,&quot;rounded&quot;:0};rounded=1;" parent="iCU8PE95by6Qg0S7l5G6-57" vertex="1">
          <mxGeometry x="45" y="638" width="10" height="122" as="geometry" />
        </mxCell>
        <mxCell id="iCU8PE95by6Qg0S7l5G6-58" value="融资系统" style="text;strokeColor=none;fillColor=none;html=1;fontSize=24;fontStyle=1;verticalAlign=middle;align=center;rounded=1;" parent="1" vertex="1">
          <mxGeometry x="910" y="880" width="100" height="40" as="geometry" />
        </mxCell>
        <mxCell id="iCU8PE95by6Qg0S7l5G6-60" value="购买资产" style="html=1;verticalAlign=bottom;endArrow=open;dashed=1;endSize=8;edgeStyle=elbowEdgeStyle;elbow=vertical;curved=0;rounded=1;" parent="1" edge="1">
          <mxGeometry relative="1" as="geometry">
            <mxPoint x="960" y="769" as="sourcePoint" />
            <mxPoint x="479.38888888888914" y="769.2222222222222" as="targetPoint" />
          </mxGeometry>
        </mxCell>
        <mxCell id="iCU8PE95by6Qg0S7l5G6-64" value="购买数据资产" style="html=1;verticalAlign=bottom;endArrow=block;edgeStyle=elbowEdgeStyle;elbow=vertical;curved=0;rounded=1;" parent="1" edge="1">
          <mxGeometry width="80" relative="1" as="geometry">
            <mxPoint x="160" y="730" as="sourcePoint" />
            <mxPoint x="959.5000000000005" y="730.2222222222222" as="targetPoint" />
          </mxGeometry>
        </mxCell>
        <mxCell id="iCU8PE95by6Qg0S7l5G6-67" value="赎回资产" style="html=1;verticalAlign=bottom;endArrow=block;edgeStyle=elbowEdgeStyle;elbow=vertical;curved=0;rounded=1;" parent="1" edge="1">
          <mxGeometry width="80" relative="1" as="geometry">
            <mxPoint x="800" y="810" as="sourcePoint" />
            <mxPoint x="959.5000000000005" y="810.2222222222222" as="targetPoint" />
          </mxGeometry>
        </mxCell>
        <mxCell id="iCU8PE95by6Qg0S7l5G6-70" value="赎回资产" style="html=1;verticalAlign=bottom;endArrow=open;dashed=1;endSize=8;edgeStyle=elbowEdgeStyle;elbow=vertical;curved=0;rounded=1;" parent="1" edge="1">
          <mxGeometry relative="1" as="geometry">
            <mxPoint x="960" y="830" as="sourcePoint" />
            <mxPoint x="479.38888888888914" y="830.2222222222222" as="targetPoint" />
          </mxGeometry>
        </mxCell>
        <mxCell id="iCU8PE95by6Qg0S7l5G6-71" value="开户" style="shape=umlFrame;whiteSpace=wrap;html=1;pointerEvents=0;fillColor=#1ba1e2;strokeColor=#006EAF;fontColor=#ffffff;rounded=1;" parent="1" vertex="1">
          <mxGeometry x="80" y="370" width="640" height="130" as="geometry" />
        </mxCell>
        <mxCell id="iCU8PE95by6Qg0S7l5G6-73" value="收款" style="shape=umlFrame;whiteSpace=wrap;html=1;pointerEvents=0;fillColor=#f0a30a;strokeColor=#BD7000;fontColor=#000000;rounded=1;" parent="1" vertex="1">
          <mxGeometry x="80" y="520" width="640" height="140" as="geometry" />
        </mxCell>
        <mxCell id="iCU8PE95by6Qg0S7l5G6-74" value="付款" style="shape=umlFrame;whiteSpace=wrap;html=1;pointerEvents=0;rounded=1;" parent="1" vertex="1">
          <mxGeometry x="80" y="680" width="920" height="200" as="geometry" />
        </mxCell>
        <mxCell id="iCU8PE95by6Qg0S7l5G6-79" value="GO" style="shape=umlLifeline;perimeter=lifelinePerimeter;whiteSpace=wrap;html=1;container=1;dropTarget=0;collapsible=0;recursiveResize=0;outlineConnect=0;portConstraint=eastwest;newEdgeStyle={&quot;edgeStyle&quot;:&quot;elbowEdgeStyle&quot;,&quot;elbow&quot;:&quot;vertical&quot;,&quot;curved&quot;:0,&quot;rounded&quot;:0};fontSize=20;rounded=1;" parent="1" vertex="1">
          <mxGeometry x="110" y="80" width="100" height="1181.1" as="geometry" />
        </mxCell>
        <mxCell id="iCU8PE95by6Qg0S7l5G6-80" value="" style="html=1;points=[];perimeter=orthogonalPerimeter;outlineConnect=0;targetShapes=umlLifeline;portConstraint=eastwest;newEdgeStyle={&quot;edgeStyle&quot;:&quot;elbowEdgeStyle&quot;,&quot;elbow&quot;:&quot;vertical&quot;,&quot;curved&quot;:0,&quot;rounded&quot;:0};fillColor=#1ba1e2;fontColor=#ffffff;strokeColor=#006EAF;rounded=1;" parent="iCU8PE95by6Qg0S7l5G6-79" vertex="1">
          <mxGeometry x="45" y="320" width="10" height="80" as="geometry" />
        </mxCell>
        <mxCell id="iCU8PE95by6Qg0S7l5G6-81" value="" style="html=1;points=[];perimeter=orthogonalPerimeter;outlineConnect=0;targetShapes=umlLifeline;portConstraint=eastwest;newEdgeStyle={&quot;edgeStyle&quot;:&quot;elbowEdgeStyle&quot;,&quot;elbow&quot;:&quot;vertical&quot;,&quot;curved&quot;:0,&quot;rounded&quot;:0};fillColor=#f0a30a;fontColor=#000000;strokeColor=#BD7000;rounded=1;" parent="iCU8PE95by6Qg0S7l5G6-79" vertex="1">
          <mxGeometry x="45" y="480" width="10" height="80" as="geometry" />
        </mxCell>
        <mxCell id="iCU8PE95by6Qg0S7l5G6-82" value="" style="html=1;points=[];perimeter=orthogonalPerimeter;outlineConnect=0;targetShapes=umlLifeline;portConstraint=eastwest;newEdgeStyle={&quot;edgeStyle&quot;:&quot;elbowEdgeStyle&quot;,&quot;elbow&quot;:&quot;vertical&quot;,&quot;curved&quot;:0,&quot;rounded&quot;:0};rounded=1;" parent="iCU8PE95by6Qg0S7l5G6-79" vertex="1">
          <mxGeometry x="45" y="640" width="10" height="40" as="geometry" />
        </mxCell>
        <mxCell id="iCU8PE95by6Qg0S7l5G6-83" value="" style="shape=umlLifeline;perimeter=lifelinePerimeter;whiteSpace=wrap;html=1;container=1;dropTarget=0;collapsible=0;recursiveResize=0;outlineConnect=0;portConstraint=eastwest;newEdgeStyle={&quot;edgeStyle&quot;:&quot;elbowEdgeStyle&quot;,&quot;elbow&quot;:&quot;vertical&quot;,&quot;curved&quot;:0,&quot;rounded&quot;:0};fontSize=20;rounded=1;" parent="1" vertex="1">
          <mxGeometry x="270" y="80" width="100" height="1181.1" as="geometry" />
        </mxCell>
        <mxCell id="iCU8PE95by6Qg0S7l5G6-84" value="" style="html=1;points=[];perimeter=orthogonalPerimeter;outlineConnect=0;targetShapes=umlLifeline;portConstraint=eastwest;newEdgeStyle={&quot;edgeStyle&quot;:&quot;elbowEdgeStyle&quot;,&quot;elbow&quot;:&quot;vertical&quot;,&quot;curved&quot;:0,&quot;rounded&quot;:0};fillColor=#1ba1e2;fontColor=#ffffff;strokeColor=#006EAF;rounded=1;" parent="iCU8PE95by6Qg0S7l5G6-83" vertex="1">
          <mxGeometry x="45" y="320" width="10" height="80" as="geometry" />
        </mxCell>
        <mxCell id="iCU8PE95by6Qg0S7l5G6-85" value="" style="html=1;points=[];perimeter=orthogonalPerimeter;outlineConnect=0;targetShapes=umlLifeline;portConstraint=eastwest;newEdgeStyle={&quot;edgeStyle&quot;:&quot;elbowEdgeStyle&quot;,&quot;elbow&quot;:&quot;vertical&quot;,&quot;curved&quot;:0,&quot;rounded&quot;:0};fillColor=#f0a30a;fontColor=#000000;strokeColor=#BD7000;rounded=1;" parent="iCU8PE95by6Qg0S7l5G6-83" vertex="1">
          <mxGeometry x="45" y="520" width="10" height="40" as="geometry" />
        </mxCell>
        <mxCell id="iCU8PE95by6Qg0S7l5G6-86" value="账户系统" style="shape=umlLifeline;perimeter=lifelinePerimeter;whiteSpace=wrap;html=1;container=1;dropTarget=0;collapsible=0;recursiveResize=0;outlineConnect=0;portConstraint=eastwest;newEdgeStyle={&quot;edgeStyle&quot;:&quot;elbowEdgeStyle&quot;,&quot;elbow&quot;:&quot;vertical&quot;,&quot;curved&quot;:0,&quot;rounded&quot;:0};fontSize=20;rounded=1;" parent="1" vertex="1">
          <mxGeometry x="430" y="80" width="100" height="1181.1" as="geometry" />
        </mxCell>
        <mxCell id="iCU8PE95by6Qg0S7l5G6-87" value="" style="html=1;points=[];perimeter=orthogonalPerimeter;outlineConnect=0;targetShapes=umlLifeline;portConstraint=eastwest;newEdgeStyle={&quot;edgeStyle&quot;:&quot;elbowEdgeStyle&quot;,&quot;elbow&quot;:&quot;vertical&quot;,&quot;curved&quot;:0,&quot;rounded&quot;:0};fillColor=#60a917;strokeColor=#2D7600;fontColor=#ffffff;rounded=1;" parent="iCU8PE95by6Qg0S7l5G6-86" vertex="1">
          <mxGeometry x="45" y="120" width="10" height="120" as="geometry" />
        </mxCell>
        <mxCell id="iCU8PE95by6Qg0S7l5G6-88" value="" style="html=1;points=[];perimeter=orthogonalPerimeter;outlineConnect=0;targetShapes=umlLifeline;portConstraint=eastwest;newEdgeStyle={&quot;edgeStyle&quot;:&quot;elbowEdgeStyle&quot;,&quot;elbow&quot;:&quot;vertical&quot;,&quot;curved&quot;:0,&quot;rounded&quot;:0};fillColor=#1ba1e2;fontColor=#ffffff;strokeColor=#006EAF;rounded=1;" parent="iCU8PE95by6Qg0S7l5G6-86" vertex="1">
          <mxGeometry x="45" y="320" width="10" height="80" as="geometry" />
        </mxCell>
        <mxCell id="iCU8PE95by6Qg0S7l5G6-89" value="" style="html=1;points=[];perimeter=orthogonalPerimeter;outlineConnect=0;targetShapes=umlLifeline;portConstraint=eastwest;newEdgeStyle={&quot;edgeStyle&quot;:&quot;elbowEdgeStyle&quot;,&quot;elbow&quot;:&quot;vertical&quot;,&quot;curved&quot;:0,&quot;rounded&quot;:0};fillColor=#f0a30a;fontColor=#000000;strokeColor=#BD7000;rounded=1;" parent="iCU8PE95by6Qg0S7l5G6-86" vertex="1">
          <mxGeometry x="45" y="520" width="10" height="40" as="geometry" />
        </mxCell>
        <mxCell id="iCU8PE95by6Qg0S7l5G6-90" value="" style="html=1;points=[];perimeter=orthogonalPerimeter;outlineConnect=0;targetShapes=umlLifeline;portConstraint=eastwest;newEdgeStyle={&quot;edgeStyle&quot;:&quot;elbowEdgeStyle&quot;,&quot;elbow&quot;:&quot;vertical&quot;,&quot;curved&quot;:0,&quot;rounded&quot;:0};rounded=1;" parent="iCU8PE95by6Qg0S7l5G6-86" vertex="1">
          <mxGeometry x="45" y="679" width="10" height="81" as="geometry" />
        </mxCell>
        <mxCell id="iCU8PE95by6Qg0S7l5G6-91" value="DBS HK" style="shape=umlLifeline;perimeter=lifelinePerimeter;whiteSpace=wrap;html=1;container=1;dropTarget=0;collapsible=0;recursiveResize=0;outlineConnect=0;portConstraint=eastwest;newEdgeStyle={&quot;edgeStyle&quot;:&quot;elbowEdgeStyle&quot;,&quot;elbow&quot;:&quot;vertical&quot;,&quot;curved&quot;:0,&quot;rounded&quot;:0};fontSize=20;rounded=1;" parent="1" vertex="1">
          <mxGeometry x="590" y="80" width="100" height="1181.1" as="geometry" />
        </mxCell>
        <mxCell id="iCU8PE95by6Qg0S7l5G6-92" value="" style="html=1;points=[];perimeter=orthogonalPerimeter;outlineConnect=0;targetShapes=umlLifeline;portConstraint=eastwest;newEdgeStyle={&quot;edgeStyle&quot;:&quot;elbowEdgeStyle&quot;,&quot;elbow&quot;:&quot;vertical&quot;,&quot;curved&quot;:0,&quot;rounded&quot;:0};fillColor=#1ba1e2;fontColor=#ffffff;strokeColor=#006EAF;rounded=1;" parent="iCU8PE95by6Qg0S7l5G6-91" vertex="1">
          <mxGeometry x="45" y="320" width="10" height="80" as="geometry" />
        </mxCell>
        <mxCell id="iCU8PE95by6Qg0S7l5G6-93" value="" style="html=1;points=[];perimeter=orthogonalPerimeter;outlineConnect=0;targetShapes=umlLifeline;portConstraint=eastwest;newEdgeStyle={&quot;edgeStyle&quot;:&quot;elbowEdgeStyle&quot;,&quot;elbow&quot;:&quot;vertical&quot;,&quot;curved&quot;:0,&quot;rounded&quot;:0};fillColor=#f0a30a;fontColor=#000000;strokeColor=#BD7000;rounded=1;" parent="iCU8PE95by6Qg0S7l5G6-91" vertex="1">
          <mxGeometry x="45" y="480" width="10" height="80" as="geometry" />
        </mxCell>
        <mxCell id="iCU8PE95by6Qg0S7l5G6-94" value="826300" style="shape=umlLifeline;perimeter=lifelinePerimeter;whiteSpace=wrap;html=1;container=1;dropTarget=0;collapsible=0;recursiveResize=0;outlineConnect=0;portConstraint=eastwest;newEdgeStyle={&quot;edgeStyle&quot;:&quot;elbowEdgeStyle&quot;,&quot;elbow&quot;:&quot;vertical&quot;,&quot;curved&quot;:0,&quot;rounded&quot;:0};fontSize=20;rounded=1;" parent="1" vertex="1">
          <mxGeometry x="750" y="80" width="100" height="1181.1" as="geometry" />
        </mxCell>
        <mxCell id="iCU8PE95by6Qg0S7l5G6-95" value="" style="html=1;points=[];perimeter=orthogonalPerimeter;outlineConnect=0;targetShapes=umlLifeline;portConstraint=eastwest;newEdgeStyle={&quot;edgeStyle&quot;:&quot;elbowEdgeStyle&quot;,&quot;elbow&quot;:&quot;vertical&quot;,&quot;curved&quot;:0,&quot;rounded&quot;:0};rounded=1;" parent="iCU8PE95by6Qg0S7l5G6-94" vertex="1">
          <mxGeometry x="45" y="719" width="10" height="40" as="geometry" />
        </mxCell>
        <mxCell id="iCU8PE95by6Qg0S7l5G6-98" value="DBS HK" style="shape=umlLifeline;perimeter=lifelinePerimeter;whiteSpace=wrap;html=1;container=1;dropTarget=0;collapsible=0;recursiveResize=0;outlineConnect=0;portConstraint=eastwest;newEdgeStyle={&quot;edgeStyle&quot;:&quot;elbowEdgeStyle&quot;,&quot;elbow&quot;:&quot;vertical&quot;,&quot;curved&quot;:0,&quot;rounded&quot;:0};fontSize=20;rounded=1;" parent="1" vertex="1">
          <mxGeometry x="590" y="80" width="100" height="1181.1" as="geometry" />
        </mxCell>
        <mxCell id="iCU8PE95by6Qg0S7l5G6-99" value="" style="html=1;points=[];perimeter=orthogonalPerimeter;outlineConnect=0;targetShapes=umlLifeline;portConstraint=eastwest;newEdgeStyle={&quot;edgeStyle&quot;:&quot;elbowEdgeStyle&quot;,&quot;elbow&quot;:&quot;vertical&quot;,&quot;curved&quot;:0,&quot;rounded&quot;:0};fillColor=#1ba1e2;fontColor=#ffffff;strokeColor=#006EAF;rounded=1;" parent="iCU8PE95by6Qg0S7l5G6-98" vertex="1">
          <mxGeometry x="45" y="320" width="10" height="80" as="geometry" />
        </mxCell>
        <mxCell id="iCU8PE95by6Qg0S7l5G6-100" value="" style="html=1;points=[];perimeter=orthogonalPerimeter;outlineConnect=0;targetShapes=umlLifeline;portConstraint=eastwest;newEdgeStyle={&quot;edgeStyle&quot;:&quot;elbowEdgeStyle&quot;,&quot;elbow&quot;:&quot;vertical&quot;,&quot;curved&quot;:0,&quot;rounded&quot;:0};fillColor=#f0a30a;fontColor=#000000;strokeColor=#BD7000;rounded=1;" parent="iCU8PE95by6Qg0S7l5G6-98" vertex="1">
          <mxGeometry x="45" y="480" width="10" height="80" as="geometry" />
        </mxCell>
        <mxCell id="XJ6F1k_8K6ic9RC7Fvcj-105" value="融资系统" style="shape=umlLifeline;perimeter=lifelinePerimeter;whiteSpace=wrap;html=1;container=1;dropTarget=0;collapsible=0;recursiveResize=0;outlineConnect=0;portConstraint=eastwest;newEdgeStyle={&quot;edgeStyle&quot;:&quot;elbowEdgeStyle&quot;,&quot;elbow&quot;:&quot;vertical&quot;,&quot;curved&quot;:0,&quot;rounded&quot;:0};fontSize=20;rounded=1;" vertex="1" parent="1">
          <mxGeometry x="2070" y="80" width="100" height="1181.1" as="geometry" />
        </mxCell>
        <mxCell id="XJ6F1k_8K6ic9RC7Fvcj-107" value="GO" style="shape=umlLifeline;perimeter=lifelinePerimeter;whiteSpace=wrap;html=1;container=1;dropTarget=0;collapsible=0;recursiveResize=0;outlineConnect=0;portConstraint=eastwest;newEdgeStyle={&quot;edgeStyle&quot;:&quot;elbowEdgeStyle&quot;,&quot;elbow&quot;:&quot;vertical&quot;,&quot;curved&quot;:0,&quot;rounded&quot;:0};fontSize=20;rounded=1;" vertex="1" parent="1">
          <mxGeometry x="1270" y="80" width="100" height="1181.1" as="geometry" />
        </mxCell>
        <mxCell id="XJ6F1k_8K6ic9RC7Fvcj-111" value="" style="shape=umlLifeline;perimeter=lifelinePerimeter;whiteSpace=wrap;html=1;container=1;dropTarget=0;collapsible=0;recursiveResize=0;outlineConnect=0;portConstraint=eastwest;newEdgeStyle={&quot;edgeStyle&quot;:&quot;elbowEdgeStyle&quot;,&quot;elbow&quot;:&quot;vertical&quot;,&quot;curved&quot;:0,&quot;rounded&quot;:0};fontSize=20;rounded=1;" vertex="1" parent="1">
          <mxGeometry x="1430" y="80" width="100" height="1181.1" as="geometry" />
        </mxCell>
        <mxCell id="XJ6F1k_8K6ic9RC7Fvcj-143" value="" style="html=1;points=[];perimeter=orthogonalPerimeter;outlineConnect=0;targetShapes=umlLifeline;portConstraint=eastwest;newEdgeStyle={&quot;edgeStyle&quot;:&quot;elbowEdgeStyle&quot;,&quot;elbow&quot;:&quot;vertical&quot;,&quot;curved&quot;:0,&quot;rounded&quot;:0};rounded=1;" vertex="1" parent="XJ6F1k_8K6ic9RC7Fvcj-111">
          <mxGeometry x="45" y="160" width="10" height="40" as="geometry" />
        </mxCell>
        <mxCell id="XJ6F1k_8K6ic9RC7Fvcj-114" value="账户系统" style="shape=umlLifeline;perimeter=lifelinePerimeter;whiteSpace=wrap;html=1;container=1;dropTarget=0;collapsible=0;recursiveResize=0;outlineConnect=0;portConstraint=eastwest;newEdgeStyle={&quot;edgeStyle&quot;:&quot;elbowEdgeStyle&quot;,&quot;elbow&quot;:&quot;vertical&quot;,&quot;curved&quot;:0,&quot;rounded&quot;:0};fontSize=20;rounded=1;" vertex="1" parent="1">
          <mxGeometry x="1590" y="80" width="100" height="1181.1" as="geometry" />
        </mxCell>
        <mxCell id="XJ6F1k_8K6ic9RC7Fvcj-132" value="" style="html=1;points=[];perimeter=orthogonalPerimeter;outlineConnect=0;targetShapes=umlLifeline;portConstraint=eastwest;newEdgeStyle={&quot;edgeStyle&quot;:&quot;elbowEdgeStyle&quot;,&quot;elbow&quot;:&quot;vertical&quot;,&quot;curved&quot;:0,&quot;rounded&quot;:0};rounded=1;" vertex="1" parent="XJ6F1k_8K6ic9RC7Fvcj-114">
          <mxGeometry x="45" y="80" width="10" height="40" as="geometry" />
        </mxCell>
        <mxCell id="XJ6F1k_8K6ic9RC7Fvcj-138" value="" style="html=1;points=[];perimeter=orthogonalPerimeter;outlineConnect=0;targetShapes=umlLifeline;portConstraint=eastwest;newEdgeStyle={&quot;edgeStyle&quot;:&quot;elbowEdgeStyle&quot;,&quot;elbow&quot;:&quot;vertical&quot;,&quot;curved&quot;:0,&quot;rounded&quot;:0};rounded=1;" vertex="1" parent="XJ6F1k_8K6ic9RC7Fvcj-114">
          <mxGeometry x="45" y="240" width="10" height="40" as="geometry" />
        </mxCell>
        <mxCell id="XJ6F1k_8K6ic9RC7Fvcj-119" value="826300" style="shape=umlLifeline;perimeter=lifelinePerimeter;whiteSpace=wrap;html=1;container=1;dropTarget=0;collapsible=0;recursiveResize=0;outlineConnect=0;portConstraint=eastwest;newEdgeStyle={&quot;edgeStyle&quot;:&quot;elbowEdgeStyle&quot;,&quot;elbow&quot;:&quot;vertical&quot;,&quot;curved&quot;:0,&quot;rounded&quot;:0};fontSize=20;rounded=1;" vertex="1" parent="1">
          <mxGeometry x="1910" y="80" width="100" height="1181.1" as="geometry" />
        </mxCell>
        <mxCell id="XJ6F1k_8K6ic9RC7Fvcj-121" value="DBS HK" style="shape=umlLifeline;perimeter=lifelinePerimeter;whiteSpace=wrap;html=1;container=1;dropTarget=0;collapsible=0;recursiveResize=0;outlineConnect=0;portConstraint=eastwest;newEdgeStyle={&quot;edgeStyle&quot;:&quot;elbowEdgeStyle&quot;,&quot;elbow&quot;:&quot;vertical&quot;,&quot;curved&quot;:0,&quot;rounded&quot;:0};fontSize=20;rounded=1;" vertex="1" parent="1">
          <mxGeometry x="1750" y="80" width="100" height="1181.1" as="geometry" />
        </mxCell>
        <mxCell id="XJ6F1k_8K6ic9RC7Fvcj-131" value="" style="html=1;points=[];perimeter=orthogonalPerimeter;outlineConnect=0;targetShapes=umlLifeline;portConstraint=eastwest;newEdgeStyle={&quot;edgeStyle&quot;:&quot;elbowEdgeStyle&quot;,&quot;elbow&quot;:&quot;vertical&quot;,&quot;curved&quot;:0,&quot;rounded&quot;:0};rounded=1;" vertex="1" parent="XJ6F1k_8K6ic9RC7Fvcj-121">
          <mxGeometry x="45" y="80" width="10" height="40" as="geometry" />
        </mxCell>
        <mxCell id="XJ6F1k_8K6ic9RC7Fvcj-124" value="芷悦/健宇" style="shape=umlActor;verticalLabelPosition=bottom;verticalAlign=top;html=1;fontSize=20;rounded=1;" vertex="1" parent="1">
          <mxGeometry x="315" y="40" width="30" height="60" as="geometry" />
        </mxCell>
        <mxCell id="iCU8PE95by6Qg0S7l5G6-8" value="芷悦/健宇" style="shape=umlActor;verticalLabelPosition=bottom;verticalAlign=top;html=1;fontSize=20;rounded=1;" parent="1" vertex="1">
          <mxGeometry x="1465" y="30" width="30" height="60" as="geometry" />
        </mxCell>
        <mxCell id="XJ6F1k_8K6ic9RC7Fvcj-125" value="GO" style="text;strokeColor=none;fillColor=none;html=1;fontSize=24;fontStyle=1;verticalAlign=middle;align=center;rounded=1;" vertex="1" parent="1">
          <mxGeometry x="1270" y="880" width="100" height="40" as="geometry" />
        </mxCell>
        <mxCell id="XJ6F1k_8K6ic9RC7Fvcj-126" value="芷悦/健宇" style="text;strokeColor=none;fillColor=none;html=1;fontSize=24;fontStyle=1;verticalAlign=middle;align=center;rounded=1;" vertex="1" parent="1">
          <mxGeometry x="1430" y="880" width="100" height="40" as="geometry" />
        </mxCell>
        <mxCell id="XJ6F1k_8K6ic9RC7Fvcj-127" value="账户系统" style="text;strokeColor=none;fillColor=none;html=1;fontSize=24;fontStyle=1;verticalAlign=middle;align=center;rounded=1;" vertex="1" parent="1">
          <mxGeometry x="1590" y="880" width="100" height="40" as="geometry" />
        </mxCell>
        <mxCell id="XJ6F1k_8K6ic9RC7Fvcj-128" value="DBS HK" style="text;strokeColor=none;fillColor=none;html=1;fontSize=24;fontStyle=1;verticalAlign=middle;align=center;rounded=1;" vertex="1" parent="1">
          <mxGeometry x="1750" y="880" width="100" height="40" as="geometry" />
        </mxCell>
        <mxCell id="XJ6F1k_8K6ic9RC7Fvcj-129" value="826300" style="text;strokeColor=none;fillColor=none;html=1;fontSize=24;fontStyle=1;verticalAlign=middle;align=center;rounded=1;" vertex="1" parent="1">
          <mxGeometry x="1910" y="880" width="100" height="40" as="geometry" />
        </mxCell>
        <mxCell id="XJ6F1k_8K6ic9RC7Fvcj-130" value="融资系统" style="text;strokeColor=none;fillColor=none;html=1;fontSize=24;fontStyle=1;verticalAlign=middle;align=center;rounded=1;" vertex="1" parent="1">
          <mxGeometry x="2070" y="880" width="100" height="40" as="geometry" />
        </mxCell>
        <mxCell id="XJ6F1k_8K6ic9RC7Fvcj-133" value="inward 收款通知接口" style="html=1;verticalAlign=bottom;endArrow=open;dashed=1;endSize=8;edgeStyle=elbowEdgeStyle;elbow=vertical;curved=0;rounded=1;" edge="1" parent="1" target="XJ6F1k_8K6ic9RC7Fvcj-114">
          <mxGeometry relative="1" as="geometry">
            <mxPoint x="1800" y="170" as="sourcePoint" />
            <mxPoint x="1720" y="170" as="targetPoint" />
          </mxGeometry>
        </mxCell>
        <mxCell id="XJ6F1k_8K6ic9RC7Fvcj-140" value="是否正常&lt;br&gt;收款" style="html=1;whiteSpace=wrap;aspect=fixed;shape=isoRectangle;rounded=1;" vertex="1" parent="1">
          <mxGeometry x="1639.9999999999998" y="230" width="66.66" height="40" as="geometry" />
        </mxCell>
        <mxCell id="XJ6F1k_8K6ic9RC7Fvcj-141" value="判定" style="html=1;verticalAlign=bottom;endArrow=block;edgeStyle=orthogonalEdgeStyle;elbow=vertical;rounded=1;entryX=0.838;entryY=0.508;entryDx=0;entryDy=0;entryPerimeter=0;" edge="1" parent="1" target="XJ6F1k_8K6ic9RC7Fvcj-140">
          <mxGeometry width="80" relative="1" as="geometry">
            <mxPoint x="1640" y="190" as="sourcePoint" />
            <mxPoint x="1710" y="250" as="targetPoint" />
            <Array as="points">
              <mxPoint x="1720" y="190" />
              <mxPoint x="1720" y="250" />
            </Array>
          </mxGeometry>
        </mxCell>
        <mxCell id="XJ6F1k_8K6ic9RC7Fvcj-139" value="Y&lt;br&gt;生成收款通知&lt;br&gt;以及收款审核" style="html=1;align=left;spacingLeft=2;endArrow=block;rounded=1;edgeStyle=orthogonalEdgeStyle;curved=0;rounded=0;exitX=0.546;exitY=0.971;exitDx=0;exitDy=0;exitPerimeter=0;" edge="1" target="XJ6F1k_8K6ic9RC7Fvcj-138" parent="1" source="XJ6F1k_8K6ic9RC7Fvcj-140">
          <mxGeometry relative="1" as="geometry">
            <mxPoint x="1640" y="400" as="sourcePoint" />
            <Array as="points">
              <mxPoint x="1676" y="330" />
            </Array>
          </mxGeometry>
        </mxCell>
        <mxCell id="XJ6F1k_8K6ic9RC7Fvcj-144" value="N&lt;br&gt;进入入账办理页面" style="html=1;verticalAlign=bottom;endArrow=open;dashed=1;endSize=8;edgeStyle=elbowEdgeStyle;elbow=vertical;curved=0;rounded=1;exitX=-0.019;exitY=0.514;exitDx=0;exitDy=0;exitPerimeter=0;" edge="1" parent="1" source="XJ6F1k_8K6ic9RC7Fvcj-140" target="XJ6F1k_8K6ic9RC7Fvcj-143">
          <mxGeometry relative="1" as="geometry">
            <mxPoint x="1570" y="250" as="sourcePoint" />
            <mxPoint x="1490" y="250" as="targetPoint" />
            <Array as="points" />
          </mxGeometry>
        </mxCell>
      </root>
    </mxGraphModel>
  </diagram>
</mxfile>
